<svg xmlns="http://www.w3.org/2000/svg" width="21.992" height="21.992" viewBox="0 0 21.992 21.992"><ellipse cx="10.996" cy="10.996" rx="10.996" ry="10.996" transform="translate(0)" fill="#4e598f"/><path d="M137.539,124.993l-5.179-5.181c-.086.026-.3-.074-.394-.055-2.221.37-4.369,0-6.516.592-1.037.3-1.111,1.555-1.481,2.37-.518,1.481-.444,3.11-1.111,4.517-.444.963-1.481,1.555-1.851,2.666-.123.463-.116,1.047-.256,1.49l5.2,5.194c.2.011.407.017.613.017a11,11,0,0,0,11-11Q137.557,125.3,137.539,124.993Z" transform="translate(-115.564 -114.611)" fill="#364270"/><g transform="translate(4.702 4.702)"><path d="M120.36,109.466h-9.2a1.7,1.7,0,0,0-1.7,1.7v9.2a1.7,1.7,0,0,0,1.7,1.7H115.7l.008-4.5h-1.169a.276.276,0,0,1-.276-.275l-.006-1.45a.276.276,0,0,1,.276-.277H115.7v-1.4a2.289,2.289,0,0,1,2.443-2.511h1.19a.276.276,0,0,1,.276.276v1.223a.276.276,0,0,1-.276.276h-.73c-.789,0-.942.375-.942.925v1.213h1.733a.276.276,0,0,1,.274.308l-.172,1.45a.276.276,0,0,1-.274.243h-1.554l-.008,4.5h2.7a1.7,1.7,0,0,0,1.7-1.7v-9.2a1.7,1.7,0,0,0-1.7-1.7Z" transform="translate(-109.468 -109.466)" fill="#fff"/><path d="M254.288,302.306l.008-4.5h-.019v4.5Z" transform="translate(-248.057 -289.718)" fill="#fff"/></g><path d="M258.949,109.466h-4.672v6.088h.012v-1.4a2.289,2.289,0,0,1,2.443-2.511h1.19a.276.276,0,0,1,.276.276v1.223a.276.276,0,0,1-.276.276h-.73c-.789,0-.942.375-.942.925v1.213h1.733a.276.276,0,0,1,.274.308l-.172,1.45a.276.276,0,0,1-.274.243h-1.554l-.008,4.5h2.7a1.7,1.7,0,0,0,1.7-1.7v-9.2A1.7,1.7,0,0,0,258.949,109.466Z" transform="translate(-243.355 -104.764)" fill="#d1d1d1"/></svg>