<svg xmlns="http://www.w3.org/2000/svg" width="21.992" height="21.992" viewBox="0 0 21.992 21.992"><ellipse cx="10.996" cy="10.996" rx="10.996" ry="10.996" fill="#6c27b3"/><path d="M133.141,125.713a18.511,18.511,0,0,1-4.062.029c-1.925-.148-4.739-1.037-5.776.74-1.665,2.845-.844,6.488-.456,9.711l5.787,5.786a11,11,0,0,0,10.388-10.386Z" transform="translate(-117.046 -120.004)" fill="#501a96"/><g transform="translate(4.702 4.702)"><path d="M118.306,109.468h-5.088a3.754,3.754,0,0,0-3.75,3.75v5.088a3.754,3.754,0,0,0,3.75,3.75h5.088a3.754,3.754,0,0,0,3.75-3.75v-5.088a3.754,3.754,0,0,0-3.75-3.75Zm2.484,8.838a2.484,2.484,0,0,1-2.484,2.484h-5.088a2.484,2.484,0,0,1-2.484-2.484v-5.088a2.484,2.484,0,0,1,2.484-2.484h5.088a2.484,2.484,0,0,1,2.484,2.484Z" transform="translate(-109.468 -109.468)" fill="#fff"/><path d="M183.458,180.2a3.256,3.256,0,1,0,3.256,3.256,3.26,3.26,0,0,0-3.256-3.256Zm0,5.245a1.989,1.989,0,1,1,1.989-1.989,1.989,1.989,0,0,1-1.989,1.989Z" transform="translate(-177.164 -177.164)" fill="#fff"/></g><g transform="translate(10.972 4.702)"><path d="M315.337,163.391a.78.78,0,1,1-.78-.78.78.78,0,0,1,.78.78Z" transform="translate(-311.271 -160.328)" fill="#d1d1d1"/><path d="M257.995,109.468h-2.569v1.266h2.569a2.484,2.484,0,0,1,2.484,2.484v5.088a2.484,2.484,0,0,1-2.484,2.484h-2.569v1.266h2.569a3.754,3.754,0,0,0,3.75-3.75v-5.088A3.754,3.754,0,0,0,257.995,109.468Z" transform="translate(-255.426 -109.468)" fill="#d1d1d1"/><path d="M255.451,180.2h-.025v1.266h.025a1.989,1.989,0,0,1,0,3.979h-.025v1.266h.025a3.256,3.256,0,0,0,0-6.512Z" transform="translate(-255.426 -177.164)" fill="#d1d1d1"/></g></svg>