<svg xmlns="http://www.w3.org/2000/svg" width="21.992" height="21.992" viewBox="0 0 21.992 21.992"><ellipse cx="10.996" cy="10.996" rx="10.996" ry="10.996" fill="#65a2d9"/><path d="M122.8,139.326a21.434,21.434,0,0,0-3.22,3.086c-2.293,2.765-5.095,6.688-8.908,6.1l6.813,6.8a11,11,0,0,0,10.424-10.883Z" transform="translate(-105.92 -133.341)" fill="#3a7ca5"/><path d="M121.854,135.332a4.977,4.977,0,0,1-.868.293,2.705,2.705,0,0,0,.714-1.138.142.142,0,0,0-.208-.165,5.007,5.007,0,0,1-1.327.548.336.336,0,0,1-.083.01.352.352,0,0,1-.232-.089,2.714,2.714,0,0,0-1.8-.678,2.9,2.9,0,0,0-.86.133,2.63,2.63,0,0,0-1.772,1.894,2.9,2.9,0,0,0-.064,1,.1.1,0,0,1-.024.076.1.1,0,0,1-.075.034h-.01a7.116,7.116,0,0,1-4.891-2.613.142.142,0,0,0-.233.018,2.717,2.717,0,0,0,.442,3.3,2.433,2.433,0,0,1-.619-.24.142.142,0,0,0-.211.122,2.718,2.718,0,0,0,1.585,2.5h-.058a2.43,2.43,0,0,1-.457-.044.142.142,0,0,0-.162.183,2.72,2.72,0,0,0,2.149,1.85,5.008,5.008,0,0,1-2.8.852h-.314a.208.208,0,0,0-.2.157.215.215,0,0,0,.1.238,7.449,7.449,0,0,0,3.743,1.009,7.549,7.549,0,0,0,3.2-.679,7.063,7.063,0,0,0,2.34-1.754,7.688,7.688,0,0,0,1.433-2.4,7.582,7.582,0,0,0,.487-2.627v-.041a.462.462,0,0,1,.173-.36,5.366,5.366,0,0,0,1.079-1.184.142.142,0,0,0-.175-.209Z" transform="translate(-104.764 -128.353)" fill="#fff"/><path d="M261.543,135.332a4.98,4.98,0,0,1-.868.293,2.706,2.706,0,0,0,.714-1.138.142.142,0,0,0-.208-.165,5.007,5.007,0,0,1-1.327.548.336.336,0,0,1-.083.01.352.352,0,0,1-.232-.089,2.714,2.714,0,0,0-1.8-.678,2.9,2.9,0,0,0-.86.133,2.629,2.629,0,0,0-1.46,1.14v8.826a7.031,7.031,0,0,0,3.122-2.06,7.688,7.688,0,0,0,1.433-2.4,7.582,7.582,0,0,0,.487-2.627v-.041a.462.462,0,0,1,.173-.36,5.365,5.365,0,0,0,1.079-1.184A.142.142,0,0,0,261.543,135.332Z" transform="translate(-244.453 -128.353)" fill="#d1d1d1"/></svg>