<svg xmlns="http://www.w3.org/2000/svg" width="21.992" height="21.992" viewBox="0 0 21.992 21.992"><ellipse cx="10.996" cy="10.996" rx="10.996" ry="10.996" fill="#75b73b"/><path d="M122.18,124.558c-.638-.159-1.575-.71-2.182-.931-2.37-.74-5.554-.148-6.442,2.592a.445.445,0,0,1-.3.074c-1.777,2.073-.592,4.591-.74,6.886a3.571,3.571,0,0,1-1.024,2.13l4.608,4.6a11,11,0,0,0,12.434-9Z" transform="translate(-106.706 -118.036)" fill="#52891d"/><g transform="translate(4.702 4.651)"><path d="M115.454,108.283a6.3,6.3,0,0,0-5.3,9.145l-.668,3.244a.245.245,0,0,0,.3.288l3.178-.753a6.295,6.295,0,1,0,2.495-11.924Zm3.793,9.772a4.932,4.932,0,0,1-5.678.929l-.443-.221-1.949.462.41-1.991-.218-.427a4.932,4.932,0,0,1,.908-5.722,4.928,4.928,0,0,1,6.97,6.97Z" transform="translate(-109.467 -108.276)" fill="#fff"/><path d="M188.4,188.574l-1.219-.35a.455.455,0,0,0-.45.119l-.3.3a.444.444,0,0,1-.483.1,6.508,6.508,0,0,1-2.1-1.852.444.444,0,0,1,.035-.492l.26-.337a.455.455,0,0,0,.056-.462l-.513-1.16a.455.455,0,0,0-.71-.163,2.05,2.05,0,0,0-.793,1.21c-.087.854.28,1.931,1.665,3.224,1.6,1.494,2.882,1.691,3.717,1.489a2.049,2.049,0,0,0,1.09-.95.455.455,0,0,0-.258-.681Z" transform="translate(-179.05 -180.915)" fill="#fff"/></g><g transform="translate(4.726 6.345)"><path d="M120.594,147.708l-.955.978c.049.045.1.09.144.137a4.929,4.929,0,0,1-5.678,7.9l-.443-.221-1.949.462.04-.2-1.726,1.768a.245.245,0,0,0,.289.161l3.178-.753a6.295,6.295,0,0,0,7.1-10.237Z" transform="translate(-110.028 -147.708)" fill="#d1d1d1"/><path d="M223.8,268.543l-1.219-.35a.455.455,0,0,0-.45.119l-.3.3a.444.444,0,0,1-.483.1,5.563,5.563,0,0,1-1.34-.984l-.848.869.088.084c1.6,1.494,2.882,1.691,3.716,1.489a2.049,2.049,0,0,0,1.09-.95A.455.455,0,0,0,223.8,268.543Z" transform="translate(-214.476 -262.577)" fill="#d1d1d1"/></g></svg>